<svg width="35" height="35" viewBox="0 0 35 35" fill="none" xmlns="http://www.w3.org/2000/svg">
<path d="M14.0086 3.50015C11.2221 3.50015 8.54976 4.60707 6.57942 6.57742C4.60908 8.54776 3.50215 11.2201 3.50215 14.0066C3.50215 16.7931 4.60908 19.4654 6.57942 21.4358C8.54976 23.4061 11.2221 24.5131 14.0086 24.5131C16.7951 24.5131 19.4674 23.4061 21.4378 21.4358C23.4081 19.4654 24.5151 16.7931 24.5151 14.0066C24.5151 11.2201 23.4081 8.54776 21.4378 6.57742C19.4674 4.60707 16.7951 3.50015 14.0086 3.50015ZM8.65316e-08 14.0066C0.000319267 11.7772 0.532709 9.58014 1.55292 7.59791C2.57314 5.61568 4.05171 3.90557 5.86576 2.6097C7.67981 1.31383 9.77695 0.46962 11.9829 0.147241C14.1888 -0.175137 16.4398 0.0336221 18.5489 0.75617C20.6579 1.47872 22.564 2.69419 24.1088 4.30156C25.6536 5.90893 26.7925 7.86179 27.4308 9.99782C28.0691 12.1339 28.1883 14.3914 27.7787 16.5828C27.369 18.7742 26.4422 20.8362 25.0754 22.5974L34.5084 32.0304C34.8274 32.3607 35.0039 32.803 34.9999 33.2621C34.9959 33.7213 34.8118 34.1604 34.4871 34.4851C34.1625 34.8098 33.7233 34.9939 33.2641 34.9979C32.805 35.0019 32.3627 34.8254 32.0324 34.5064L22.5994 25.0734C20.5287 26.6811 18.0484 27.6754 15.4406 27.9434C12.8328 28.2114 10.2021 27.7422 7.8477 26.5893C5.49331 25.4363 3.50967 23.6459 2.12235 21.4215C0.73503 19.1972 -0.00029124 16.6281 8.65316e-08 14.0066Z" fill="#0D0D0D"/>
</svg>
