<svg width="23" height="23" viewBox="0 0 23 23" fill="none" xmlns="http://www.w3.org/2000/svg">
<path d="M22.7962 11.2912C22.7962 5.09033 17.7683 0.0666504 11.5717 0.0666504C5.37085 0.0666504 0.347168 5.09033 0.347168 11.2912C0.347168 16.8922 4.45044 21.5364 9.81787 22.3775V14.5365H6.96754V11.2919H9.81787V8.81758C9.81787 6.00513 11.491 4.45193 14.0558 4.45193C15.2842 4.45193 16.5701 4.67081 16.5701 4.67081V7.43275H15.1523C13.7605 7.43275 13.3255 8.29914 13.3255 9.18658V11.2912H16.4382L15.938 14.5358H13.3255V22.3768C18.6888 21.5357 22.7962 16.8915 22.7962 11.2905V11.2912Z" fill="white"/>
</svg>
