<svg width="23" height="19" viewBox="0 0 23 19" fill="none" xmlns="http://www.w3.org/2000/svg">
<path d="M22.8552 2.27268C22.0295 2.63468 21.1456 2.88372 20.214 2.99667C21.1645 2.42632 21.8913 1.52415 22.2379 0.449399C21.3462 0.968534 20.3599 1.34456 19.3111 1.55712C18.4749 0.661964 17.2795 0.0986328 15.9529 0.0986328C13.4098 0.0986328 11.3487 2.15904 11.3487 4.69859C11.3487 5.06409 11.3929 5.41485 11.4694 5.74738C7.6439 5.56849 4.25269 3.73047 1.98463 0.953802C1.58616 1.63008 1.35956 2.4158 1.35956 3.27097C1.35956 4.87116 2.17404 6.27423 3.40524 7.09923C2.65249 7.07749 1.94394 6.86913 1.32308 6.52608V6.5815C1.32308 8.81308 2.90855 10.6735 5.01315 11.0973C4.62941 11.199 4.21972 11.2579 3.80371 11.2579C3.50836 11.2579 3.22634 11.2292 2.94503 11.1772C3.53712 13.004 5.23203 14.3341 7.25244 14.3741C5.68171 15.6053 3.69076 16.3391 1.54547 16.3391C1.17997 16.3391 0.815175 16.3216 0.448975 16.2774C2.49535 17.5822 4.91073 18.3455 7.51973 18.3455C15.9851 18.3455 20.611 11.3337 20.611 5.26122C20.611 5.06759 20.611 4.87046 20.5963 4.67263C21.4992 4.02932 22.2807 3.21414 22.898 2.29022L22.8552 2.27268Z" fill="white"/>
</svg>
