<svg width="23" height="17" viewBox="0 0 23 17" fill="none" xmlns="http://www.w3.org/2000/svg">
<path d="M21.98 2.79957C21.7218 1.82743 20.9611 1.0618 19.9952 0.801971C18.2446 0.329834 11.2245 0.329834 11.2245 0.329834C11.2245 0.329834 4.20455 0.329834 2.45383 0.801971C1.48797 1.06184 0.727278 1.82743 0.469095 2.79957C0 4.56164 0 8.23802 0 8.23802C0 8.23802 0 11.9144 0.469095 13.6765C0.727278 14.6486 1.48797 15.3823 2.45383 15.6422C4.20455 16.1143 11.2245 16.1143 11.2245 16.1143C11.2245 16.1143 18.2445 16.1143 19.9952 15.6422C20.9611 15.3823 21.7218 14.6486 21.98 13.6765C22.4491 11.9144 22.4491 8.23802 22.4491 8.23802C22.4491 8.23802 22.4491 4.56164 21.98 2.79957ZM8.92859 11.5759V4.90014L14.7959 8.2381L8.92859 11.5759Z" fill="white"/>
</svg>
