<svg width="24" height="23" viewBox="0 0 24 23" fill="none" xmlns="http://www.w3.org/2000/svg">
<path d="M12.1252 5.46766C8.94004 5.46766 6.37086 8.03684 6.37086 11.222C6.37086 14.4072 8.94004 16.9764 12.1252 16.9764C15.3104 16.9764 17.8796 14.4072 17.8796 11.222C17.8796 8.03684 15.3104 5.46766 12.1252 5.46766ZM12.1252 14.9631C10.0669 14.9631 8.38413 13.2854 8.38413 11.222C8.38413 9.15867 10.0619 7.48093 12.1252 7.48093C14.1886 7.48093 15.8663 9.15867 15.8663 11.222C15.8663 13.2854 14.1836 14.9631 12.1252 14.9631ZM19.4572 5.23227C19.4572 5.97849 18.8562 6.57446 18.115 6.57446C17.3688 6.57446 16.7728 5.97348 16.7728 5.23227C16.7728 4.49106 17.3738 3.89009 18.115 3.89009C18.8562 3.89009 19.4572 4.49106 19.4572 5.23227ZM23.2684 6.59449C23.1832 4.79656 22.7726 3.20397 21.4554 1.89183C20.1433 0.579694 18.5507 0.169025 16.7528 0.0788785C14.8997 -0.0262928 9.3457 -0.0262928 7.49268 0.0788785C5.69976 0.164017 4.10717 0.574686 2.79002 1.88682C1.47288 3.19896 1.06722 4.79155 0.977072 6.58948C0.871901 8.4425 0.871901 13.9965 0.977072 15.8496C1.06221 17.6475 1.47288 19.2401 2.79002 20.5522C4.10717 21.8644 5.69476 22.275 7.49268 22.3652C9.3457 22.4703 14.8997 22.4703 16.7528 22.3652C18.5507 22.28 20.1433 21.8694 21.4554 20.5522C22.7676 19.2401 23.1782 17.6475 23.2684 15.8496C23.3735 13.9965 23.3735 8.44751 23.2684 6.59449ZM20.8745 17.8378C20.4838 18.8194 19.7276 19.5756 18.741 19.9713C17.2636 20.5572 13.7579 20.422 12.1252 20.422C10.4926 20.422 6.98185 20.5522 5.50945 19.9713C4.52785 19.5806 3.77162 18.8244 3.37598 17.8378C2.79002 16.3604 2.92524 12.8547 2.92524 11.222C2.92524 9.58937 2.79503 6.07865 3.37598 4.60625C3.76662 3.62465 4.52285 2.86842 5.50945 2.47278C6.98686 1.88682 10.4926 2.02204 12.1252 2.02204C13.7579 2.02204 17.2686 1.89183 18.741 2.47278C19.7226 2.86341 20.4788 3.61965 20.8745 4.60625C21.4604 6.08366 21.3252 9.58937 21.3252 11.222C21.3252 12.8547 21.4604 16.3654 20.8745 17.8378Z" fill="white"/>
</svg>
