<svg width="21" height="22" viewBox="0 0 21 22" fill="none" xmlns="http://www.w3.org/2000/svg">
<path fill-rule="evenodd" clip-rule="evenodd" d="M17.7801 0.90081C18.0121 0.80401 18.2465 0.76001 18.4757 0.76001C19.7653 0.76001 20.8821 2.15561 20.3393 3.45921L12.6633 20.0904C12.2929 20.884 11.5949 21.24 10.9029 21.24C9.92174 21.24 8.95334 20.5232 8.95334 19.3228V12.2864H1.91694C-0.12986 12.2864 -0.76946 9.47201 1.14934 8.57641L17.7801 0.90081ZM11.5037 19.5496L19.1777 2.92321C19.2533 2.73921 19.1681 2.53441 19.0805 2.40281C18.9357 2.18561 18.6929 2.03961 18.4761 2.03961C18.4073 2.03961 18.3409 2.05321 18.2725 2.08161L1.68534 9.73801C1.24654 9.94281 1.25334 10.3048 1.29734 10.502C1.33134 10.654 1.45894 11.0072 1.91694 11.0072H10.2321V19.3232C10.2321 19.8276 10.6705 19.9608 10.9025 19.9608C11.1741 19.9608 11.3765 19.8224 11.5037 19.5496Z" fill="#1C3859"/>
</svg>
