<svg width="61" height="61" viewBox="0 0 61 61" fill="none" xmlns="http://www.w3.org/2000/svg">
<path d="M48.5835 6.17886C47.8931 8.96626 41.9766 32.8568 41.4657 34.9141L32.5668 31.1325C33.63 29.4394 46.8455 8.39325 48.3108 6.0615L48.3902 5.93378L48.6198 6.03043L48.5835 6.17714V6.17886Z" fill="white"/>
<path d="M45.0712 43.8907C42.8534 41.6366 34.6396 33.2382 32.5668 31.1343L42.6618 26.5105C43.1002 29.3635 44.8417 40.7063 45.3111 43.7716L45.3318 43.9114L45.1696 43.9925L45.0712 43.8924V43.8907Z" fill="white"/>
<path d="M56.4797 27.6462C55.7859 27.6893 50.8272 27.9827 50.2698 28.0155L49.8124 26.8332C50.2266 26.5019 54.1359 23.3503 54.6588 22.9326L56.7248 21.2688L59.1273 27.4874L56.4797 27.6444V27.6462Z" fill="white"/>
<path d="M50.6133 37.7585C52.8449 38.8682 58.8495 41.8524 61 42.9208L55.2233 49.7572C53.2488 47.0458 49.3516 41.685 47.3599 38.9494L49.0306 36.9714L50.6115 37.7567L50.6133 37.7585Z" fill="white"/>
<path d="M22.0524 9.44953C23.5522 12.4596 28.1743 21.7296 29.5982 24.5878L26.8142 28.1467C23.7507 27.4632 13.5348 25.1867 10.3056 24.467L0 22.1697L17.3423 0L22.0524 9.44953Z" fill="white"/>
<path d="M28.6489 50.577C30.0935 48.77 34.7898 42.8914 36.1533 41.1844L39.298 41.987C39.6691 44.0978 40.9894 51.5884 41.3847 53.827L42.6377 60.9292L24.1459 56.2105L28.6472 50.577H28.6489Z" fill="white"/>
</svg>
